<svg xmlns:dc="http://purl.org/dc/elements/1.1/" xmlns:cc="http://creativecommons.org/ns#" xmlns:rdf="http://www.w3.org/1999/02/22-rdf-syntax-ns#" xmlns:svg="http://www.w3.org/2000/svg" xmlns="http://www.w3.org/2000/svg" viewBox="0 0 20 20" shape-rendering="crispEdges"><metadata><rdf:RDF><cc:Work><dc:format>image/svg+xml</dc:format><dc:type rdf:resource="http://purl.org/dc/dcmitype/StillImage"/><dc:title>Human / 8biticon</dc:title><dc:creator><cc:Agent><dc:title>Plastic Jam</dc:title></cc:Agent></dc:creator><dc:source>https://github.com/dicebear/dicebear</dc:source><cc:license rdf:resource="https://github.com/dicebear/dicebear/blob/v4/packages/avatars-human-sprites/LICENSE"/><dc:contributor><cc:Agent><dc:title>Florian Körner</dc:title></cc:Agent></dc:contributor></cc:Work></rdf:RDF></metadata><mask id="avatarsRadiusMask"><rect width="20" height="20" rx="0" ry="0" x="0" y="0" fill="#fff"/></mask><g mask="url(#avatarsRadiusMask)"><path d="M3 20v-3h1v-1h4v-2H6v-1H5v-1H4v-1H3V9H2V7h1V4h1V3h1V2h10v1h1v1h1v3h1v2h-1v2h-1v1h-1v1h-1v1h-2v2h4v1h1v3H3z" fill="#CB9E6E"/><path d="M14 14v-1h1v-1h1v-1h1V9h1V7h-1V4h-1V3h-1V2H5v1H4v1H3v3H2v2h1v2h1v1h1v1h1v1h8z" fill="#FFF" fill-opacity=".1"/><path d="M5 7h3v3H5V7zm7 0h3v3h-3V7z" fill="#FFF"/><path d="M6 7h2v2H6V7zm7 0h2v2h-2V7z" fill="#76778b"/><path d="M6 7v1h1v1h1V8H7V7H6zm7 0v1h1v1h1V8h-1V7h-1z" fill="#FFF" fill-opacity=".4"/><path d="M7 7v1h1V7H7zm7 0h1v1h-1V7z" fill="#FFF" fill-opacity=".7"/><path d="M5 6h2v1H5V6zm8 0h2v1h-2V6z" fill-rule="evenodd" fill="#3b3227"/><path d="M2 9v2h1V9H2zm15 0h1v2h-1V9z" fill-rule="evenodd" fill="#eee8aa"/><path d="M9 12v1h1v1h1v-2H9z" fill="#e6b49e"/><path d="M5 16h1v2h1v1h1v1H5v-4zm9 0h1v4h-3v-1h1v-1h1v-2z" fill-rule="evenodd" fill="#00aedb"/><path d="M2 10h1V8h1V7h1V6h1V5h1V4h7v1h3V4h-1V3h-1V2H4v1H3v1H2v6z" fill="#554838"/></g></svg>